# Exported from Wings 3D 2.1.5
mtllib LandingLegFalcon9.mtl
o Cube1
#19 vertices, 17 faces
v -3.50000000 -8.00000000 -0.50000000
v -3.50000000 -8.00000000 -5.4090419e-2
v -0.31512600 7.24303492 -0.50000000
v -0.31512600 7.24303492 -5.4090419e-2
v 3.50000000 -8.00000000 -0.50000000
v 3.50000000 -8.00000000 -5.4090419e-2
v 0.31512600 7.24303492 -0.50000000
v 0.31512600 7.24303492 -5.4090419e-2
v -3.12100000 -8.00000000 -0.50000000
v 3.12100000 -8.00000000 -0.50000000
v -3.12100000 -8.00000000 0.50000000
v 3.12100000 -8.00000000 0.50000000
v 0.0000000e+0 -1.42178463 -0.50000000
v 0.0000000e+0 -1.42178463 0.73373213
v 0.0000000e+0 6.21402549 0.39862918
v -2.1110880e-3 8.00494371 -0.51478816
v -2.1110880e-3 8.00494371 -0.50943724
v 2.1110880e-3 8.00494371 -0.50943724
v 2.1110880e-3 8.00494371 -0.51478816
vt 0.0000000e+0 0.92675057
vt 4.4755866e-16 0.0000000e+0
vt 2.6537474e-2 0.92675057
vt 2.6537474e-2 0.0000000e+0
vt 2.6537474e-2 0.0000000e+0
vt 2.6537474e-2 0.92675057
vt 5.3074948e-2 0.0000000e+0
vt 5.3074948e-2 0.90716069
vt 5.3074948e-2 0.90747914
vt 5.3074948e-2 0.92675057
vt 5.3074948e-2 1.6653345e-16
vt 5.3326223e-2 0.90716069
vt 5.3326223e-2 0.90747914
vt 7.5630423e-2 0.0000000e+0
vt 0.24261676 0.90716069
vt 0.26137090 0.39149017
vt 0.28012503 0.90716069
vt 0.44711137 3.8857806e-16
vt 0.46966684 1.6653345e-16
vt 0.46966684 3.6174289e-3
vt 0.50855744 0.0000000e+0
vt 0.58905264 0.90174644
vt 0.62381825 0.84338735
vt 0.64870371 0.39977547
vt 0.64870371 0.82885087
vt 0.66555381 0.38486116
vt 0.67783988 0.89021466
vt 0.84259418 0.0000000e+0
vt 0.88097374 5.5511151e-17
vt 0.88097374 0.43331753
vt 0.88097374 0.77011447
vt 0.88097374 7.2507186e-3
vt 0.88097374 0.50022191
vt 0.88097374 0.53319757
vt 0.88097374 0.55973504
vt 0.88097374 0.61924817
vt 0.88097374 0.61924817
vt 0.88097374 0.72109345
vt 0.88129219 0.72109345
vt 0.88185383 0.67207242
vt 0.89960224 0.81546659
vt 0.89960224 0.67207242
vt 0.89972788 0.43331753
vt 0.89985352 0.81546659
vt 0.89985352 0.67207242
vt 0.90352922 0.50022191
vt 0.90352922 0.55973504
vt 0.90352922 0.59271070
vt 0.90352922 0.61924817
vt 0.90751122 0.72109345
vt 0.90807286 0.77011447
vt 0.90839131 0.67207242
vt 0.90839131 0.77011447
vt 0.91848201 0.77011447
vt 0.91848201 0.50022191
vt 0.91848201 0.61924817
vt 0.94048687 0.0000000e+0
vt 0.94048687 5.5511151e-17
vt 0.94048687 0.43331753
vt 0.94048687 0.43331753
vt 1.00000000 0.0000000e+0
vt 1.00000000 0.43331753
vn 0.0000000e+0 0.0000000e+0 -1.00000000
vn -0.97886176 0.20452301 0.0000000e+0
vn 0.0000000e+0 -1.00000000 0.0000000e+0
vn -0.81337996 0.16994730 0.55635506
vn -0.97886176 0.20452301 0.0000000e+0
vn 0.0000000e+0 -1.00000000 0.0000000e+0
vn 0.0000000e+0 0.0000000e+0 -1.00000000
vn -0.97886176 0.20452301 0.0000000e+0
vn -0.92498223 0.38001036 0.0000000e+0
vn 0.0000000e+0 -1.9405698e-2 -0.99981169
vn 0.0000000e+0 0.40270541 0.91532964
vn -0.59347375 0.12931226 0.79439741
vn -0.97886176 0.20452301 0.0000000e+0
vn -0.92498223 0.38001036 0.0000000e+0
vn 0.0000000e+0 0.51300514 0.85838554
vn -0.59347375 0.12931226 0.79439741
vn 0.0000000e+0 0.0000000e+0 -1.00000000
vn 0.97886176 0.20452301 0.0000000e+0
vn 0.0000000e+0 -1.00000000 0.0000000e+0
vn 0.97886176 0.20452301 0.0000000e+0
vn 0.0000000e+0 -1.00000000 0.0000000e+0
vn 0.81337996 0.16994730 0.55635506
vn 0.0000000e+0 0.0000000e+0 -1.00000000
vn 0.97886176 0.20452301 0.0000000e+0
vn 0.92498223 0.38001036 0.0000000e+0
vn 0.0000000e+0 -1.9405698e-2 -0.99981169
vn 0.0000000e+0 0.40270541 0.91532964
vn 0.97886176 0.20452301 0.0000000e+0
vn 0.0000000e+0 0.51300514 0.85838554
vn 0.92498223 0.38001036 0.0000000e+0
vn 0.59347375 0.12931226 0.79439741
vn 0.59347375 0.12931226 0.79439741
vn 0.0000000e+0 0.0000000e+0 -1.00000000
vn 0.0000000e+0 -1.00000000 0.0000000e+0
vn 0.90347182 -0.42864750 0.0000000e+0
vn -0.90347182 -0.42864750 0.0000000e+0
vn 0.0000000e+0 0.0000000e+0 -1.00000000
vn 0.0000000e+0 -1.00000000 0.0000000e+0
vn -0.59347375 0.12931226 0.79439741
vn 0.0000000e+0 -1.00000000 0.0000000e+0
vn 0.90347182 -0.42864750 0.0000000e+0
vn -0.59347375 0.12931226 0.79439741
vn -0.90347182 -0.42864750 0.0000000e+0
vn 0.0000000e+0 -1.00000000 0.0000000e+0
vn 0.59347375 0.12931226 0.79439741
vn 0.59347375 0.12931226 0.79439741
vn -0.90347182 -0.42864750 0.0000000e+0
vn 0.0000000e+0 0.0000000e+0 -1.00000000
vn 0.90347182 -0.42864750 0.0000000e+0
vn -0.90347182 -0.42864750 0.0000000e+0
vn 0.90347182 -0.42864750 0.0000000e+0
vn -0.31025925 7.4882944e-2 0.94769813
vn 0.31025925 7.4882944e-2 0.94769813
vn 0.0000000e+0 0.40270541 0.91532964
vn -0.31025925 7.4882944e-2 0.94769813
vn 0.31025925 7.4882944e-2 0.94769813
vn 0.0000000e+0 1.00000000 0.0000000e+0
vn -0.92498223 0.38001036 0.0000000e+0
vn 0.0000000e+0 -1.9405698e-2 -0.99981169
vn 0.0000000e+0 1.00000000 0.0000000e+0
vn -0.92498223 0.38001036 0.0000000e+0
vn 0.0000000e+0 0.51300514 0.85838554
vn 0.0000000e+0 1.00000000 0.0000000e+0
vn 0.0000000e+0 0.51300514 0.85838554
vn 0.92498223 0.38001036 0.0000000e+0
vn 0.0000000e+0 1.00000000 0.0000000e+0
vn 0.92498223 0.38001036 0.0000000e+0
vn 0.0000000e+0 -1.9405698e-2 -0.99981169
g Cube1
usemtl Cube1_auv
s 1
f 2/4/5 4/3/13 3/1/8 1/2/2
f 6/34/21 12/46/44 10/47/38 5/35/19
f 13/59/49 14/30/51 11/29/41 9/57/35
f 15/43/54 8/55/27 4/33/11
f 17/8/60 18/12/63 19/13/66 16/9/57
s 2
f 1/49/3 9/37/34 11/35/40 2/48/6
f 4/52/14 17/39/61 16/38/58 3/40/9
f 5/7/18 7/10/24 8/6/28 6/5/20
f 12/61/43 14/62/50 13/60/47 10/58/36
s 3
f 3/17/7 7/15/23 5/11/17 10/14/37 13/16/48 9/18/33 1/19/1
f 7/50/25 19/53/67 18/51/65 8/38/30
f 8/27/31 12/28/45 6/32/22
f 12/28/46 8/27/32 15/25/56 14/26/53
s 4
f 2/20/4 11/21/39 4/22/12
f 3/54/10 16/44/59 19/41/68 7/31/26
f 4/22/16 11/21/42 14/24/52 15/23/55
f 8/56/29 18/45/64 17/42/62 4/36/15
