# Exported from Wings 3D 2.1.5
mtllib forcefieldblock.mtl
o Cube1
#8 vertices, 6 faces
v -0.50000000 9999.50000000 -0.50000000
v -0.50000000 9999.50000000 0.50000000
v -0.50000000 1.0000500e+4 -0.50000000
v -0.50000000 1.0000500e+4 0.50000000
v 0.50000000 9999.50000000 -0.50000000
v 0.50000000 9999.50000000 0.50000000
v 0.50000000 1.0000500e+4 -0.50000000
v 0.50000000 1.0000500e+4 0.50000000
vt 0.0000000e+0 0.33333333
vt 0.0000000e+0 0.66666667
vt 0.0000000e+0 1.00000000
vt 2.7755576e-17 0.0000000e+0
vt 2.7755576e-17 0.33333333
vt 2.7755576e-17 0.66666667
vt 0.33333333 5.5511151e-17
vt 0.33333333 0.33333333
vt 0.33333333 0.33333333
vt 0.33333333 0.66666667
vt 0.33333333 1.00000000
vt 0.33333333 0.66666667
vt 0.33333333 0.0000000e+0
vt 0.33333333 0.33333333
vt 0.33333333 0.33333333
vt 0.66666667 0.33333333
vt 0.66666667 0.66666667
vt 0.66666667 1.00000000
vt 0.66666667 5.5511151e-17
vt 0.66666667 0.33333333
vn -0.57735027 -0.57735027 -0.57735027
vn -0.57735027 -0.57735027 0.57735027
vn -0.57735027 0.57735027 -0.57735027
vn -0.57735027 0.57735027 0.57735027
vn 0.57735027 -0.57735027 -0.57735027
vn 0.57735027 -0.57735027 0.57735027
vn 0.57735027 0.57735027 -0.57735027
vn 0.57735027 0.57735027 0.57735027
g Cube1
usemtl Cube1_auv
s 1
f 1/18/1 5/11/5 6/10/6 2/17/2
f 2/7/2 4/8/4 3/1/3 1/4/1
f 2/5/2 6/9/6 8/10/8 4/2/4
f 3/11/3 7/3/7 5/6/5 1/10/1
f 4/13/4 8/19/8 7/20/7 3/14/3
f 5/16/5 7/17/7 8/12/8 6/15/6
