# Exported from Wings 3D 2.1.5
mtllib MAYAK_expanded.mtl
o Cube1
#8 vertices, 6 faces
v -0.38500000 -1.30000000 -0.38500000
v -0.38500000 -1.30000000 0.38500000
v -0.38500000 1.30000000 -0.38500000
v -0.38500000 1.30000000 0.38500000
v 0.38500000 -1.30000000 -0.38500000
v 0.38500000 -1.30000000 0.38500000
v 0.38500000 1.30000000 -0.38500000
v 0.38500000 1.30000000 0.38500000
vn 0.0000000e+0 -1.00000000 0.0000000e+0
vn -1.00000000 0.0000000e+0 0.0000000e+0
vn 0.0000000e+0 0.0000000e+0 -1.00000000
vn 0.0000000e+0 -1.00000000 0.0000000e+0
vn -1.00000000 0.0000000e+0 0.0000000e+0
vn 0.0000000e+0 0.0000000e+0 1.00000000
vn -1.00000000 0.0000000e+0 0.0000000e+0
vn 0.0000000e+0 0.0000000e+0 -1.00000000
vn 0.0000000e+0 1.00000000 0.0000000e+0
vn -1.00000000 0.0000000e+0 0.0000000e+0
vn 0.0000000e+0 0.0000000e+0 1.00000000
vn 0.0000000e+0 1.00000000 0.0000000e+0
vn 0.0000000e+0 -1.00000000 0.0000000e+0
vn 0.0000000e+0 0.0000000e+0 -1.00000000
vn 1.00000000 0.0000000e+0 0.0000000e+0
vn 0.0000000e+0 -1.00000000 0.0000000e+0
vn 0.0000000e+0 0.0000000e+0 1.00000000
vn 1.00000000 0.0000000e+0 0.0000000e+0
vn 0.0000000e+0 0.0000000e+0 -1.00000000
vn 0.0000000e+0 1.00000000 0.0000000e+0
vn 1.00000000 0.0000000e+0 0.0000000e+0
vn 0.0000000e+0 0.0000000e+0 1.00000000
vn 0.0000000e+0 1.00000000 0.0000000e+0
vn 1.00000000 0.0000000e+0 0.0000000e+0
g Cube1_default
usemtl default
s 1
f 2//5 4//10 3//7 1//2
f 5//15 7//21 8//24 6//18
s 2
f 2//6 6//17 8//22 4//11
f 3//8 7//19 5//14 1//3
s 3
f 1//1 5//13 6//16 2//4
f 4//12 8//23 7//20 3//9
o Cube2
#12 vertices, 10 faces
v -0.38500000 -1.30000000 -0.38500000
v -0.38500000 -1.30000000 0.38500000
v -0.38500000 1.30000000 -0.38500000
v -0.38500000 1.30000000 0.38500000
v 0.38500000 -1.30000000 -0.38500000
v 0.38500000 -1.30000000 0.38500000
v 0.38500000 1.30000000 -0.38500000
v 0.38500000 1.30000000 0.38500000
v -10.00000000 16.26248379 0.0000000e+0
v 5.00000000 16.26248379 8.66025404
v 5.00000000 16.26248379 -8.66025404
v -2.7099953e-15 1.26248379 0.0000000e+0
vt 1.6973099e-2 0.70725972
vt 1.6973099e-2 0.97596001
vt 1.7514003e-2 0.70689167
vt 1.7514003e-2 0.97559196
vt 3.2709268e-2 0.29614973
vt 8.9889499e-2 0.40054607
vt 0.14231436 0.50740957
vt 0.15170927 0.29882836
vt 0.21365452 0.40612069
vt 0.27070927 0.29614973
vt 0.28567340 0.70725972
vt 0.28567340 0.97596001
vt 0.28621430 0.70689167
vt 0.28621430 0.97559196
vt 0.40725752 2.2774729e-2
vt 0.40725752 0.94086019
vt 0.40776293 2.2548885e-2
vt 0.40776293 0.94063434
vt 0.40865308 2.1895120e-2
vt 0.40865308 0.93999601
vt 0.40910649 2.2184009e-2
vt 0.40910649 0.94028490
vt 0.70438893 2.2184009e-2
vt 0.70438893 0.94028490
vt 0.70556690 2.1895120e-2
vt 0.70556690 0.93999601
vt 0.70566108 2.2774729e-2
vt 0.70566108 0.94086019
vt 0.70616649 2.2548885e-2
vt 0.70616649 0.94063434
vn -0.93246475 0.36126098 0.0000000e+0
vn 0.46623237 0.36126098 0.80753816
vn 0.46623237 0.36126098 -0.80753816
vn -1.6801351e-10 -1.00000000 0.0000000e+0
vn 0.0000000e+0 -1.00000000 0.0000000e+0
vn -1.00000000 0.0000000e+0 0.0000000e+0
vn 0.0000000e+0 0.0000000e+0 -1.00000000
vn 0.0000000e+0 -1.00000000 0.0000000e+0
vn -1.00000000 0.0000000e+0 0.0000000e+0
vn 0.0000000e+0 0.0000000e+0 1.00000000
vn -1.00000000 0.0000000e+0 0.0000000e+0
vn 0.0000000e+0 0.0000000e+0 -1.00000000
vn 0.0000000e+0 1.00000000 0.0000000e+0
vn -1.00000000 0.0000000e+0 0.0000000e+0
vn 0.0000000e+0 0.0000000e+0 1.00000000
vn 0.0000000e+0 1.00000000 0.0000000e+0
vn 0.0000000e+0 -1.00000000 0.0000000e+0
vn 0.0000000e+0 0.0000000e+0 -1.00000000
vn 1.00000000 0.0000000e+0 0.0000000e+0
vn 0.0000000e+0 -1.00000000 0.0000000e+0
vn 0.0000000e+0 0.0000000e+0 1.00000000
vn 1.00000000 0.0000000e+0 0.0000000e+0
vn 0.0000000e+0 0.0000000e+0 -1.00000000
vn 0.0000000e+0 1.00000000 0.0000000e+0
vn 1.00000000 0.0000000e+0 0.0000000e+0
vn 0.0000000e+0 0.0000000e+0 1.00000000
vn 0.0000000e+0 1.00000000 0.0000000e+0
vn 1.00000000 0.0000000e+0 0.0000000e+0
g Cube2_Cube2_auv
usemtl Cube2_auv
s 1
f 10/29/33 12/30/38 11/18/35 9/17/30
f 13/25/43 15/26/49 16/20/52 14/19/46
s 2
f 10/15/34 14/27/45 16/28/50 12/16/39
f 11/24/36 15/22/47 13/21/42 9/23/31
s 3
f 9/14/29 13/4/41 14/3/44 10/13/32
f 12/1/40 16/11/51 15/12/48 11/2/37
g Cube2_cone3_auv
usemtl cone3_auv
s 1
f 17/6/25 20/9/28 18/7/26
f 18/5/26 19/8/27 17/6/25
f 18/10/26 20/9/28 19/8/27
f 19/8/27 20/9/28 17/6/25
