# Exported from Wings 3D 2.1.5
mtllib MAYAK.mtl
o Cube2
#15 vertices, 13 faces
v -0.38500000 -1.30000000 -0.38500000
v -0.38500000 -1.30000000 0.38500000
v -0.38500000 1.30000000 -0.38500000
v -0.38500000 1.30000000 0.38500000
v 0.38500000 -1.30000000 -0.38500000
v 0.38500000 -1.30000000 0.38500000
v 0.38500000 1.30000000 -0.38500000
v 0.38500000 1.30000000 0.38500000
v -1.0421998e-2 1.31557394 1.8801781e-2
v -1.0421998e-2 1.31557394 1.8801781e-2
v -1.0421998e-2 1.31557394 1.8801781e-2
v -1.0421998e-2 1.31557394 1.8801781e-2
v -1.0421998e-2 1.31557394 1.8801781e-2
v -1.0421998e-2 1.31557394 1.8801781e-2
v -1.0421998e-2 1.31557394 1.8801781e-2
vt 1.7514003e-2 0.70689167
vt 1.7514003e-2 0.97559196
vt 0.28621430 0.70689167
vt 0.28621430 0.97559196
vt 0.40725752 2.2774729e-2
vt 0.40725752 0.94086019
vt 0.40776293 2.2548885e-2
vt 0.40776293 0.94063434
vt 0.40865308 2.1895120e-2
vt 0.40865308 0.93999601
vt 0.40910649 2.2184009e-2
vt 0.40910649 0.94028490
vt 0.70438893 2.2184009e-2
vt 0.70438893 0.94028490
vt 0.70556690 2.1895120e-2
vt 0.70556690 0.93999601
vt 0.70566108 2.2774729e-2
vt 0.70566108 0.94086019
vt 0.70616649 2.2548885e-2
vt 0.70616649 0.94063434
vn -0.57735027 -0.57735027 -0.57735027
vn -0.57735027 -0.57735027 0.57735027
vn -0.41975288 0.80537517 -0.41854313
vn -0.41949469 0.80481526 0.41987688
vn 0.57735027 -0.57735027 -0.57735027
vn 0.57735027 -0.57735027 0.57735027
vn 0.41901458 0.80568541 -0.41868582
vn 0.41875667 0.80512495 0.42001984
vn 0.0000000e+0 0.0000000e+0 0.0000000e+0
vn 0.0000000e+0 0.0000000e+0 0.0000000e+0
vn 0.0000000e+0 0.0000000e+0 0.0000000e+0
vn 1.9685807e-2 0.99958028 2.1254065e-2
vn -2.0779042e-2 0.99959822 -1.9277551e-2
vn 1.9685019e-2 0.99962037 -1.9277124e-2
vn -2.0779875e-2 0.99955812 2.1254536e-2
g Cube2_Cube2_auv
usemtl Cube2_auv
s 1
f 1/4/1 5/2/5 6/1/6 2/3/2
f 2/19/2 4/20/4 3/8/3 1/7/1
f 2/5/2 6/17/6 8/18/8 4/6/4
f 3/14/3 7/12/7 5/11/5 1/13/1
f 3//3 13//13 14//14 7//7
f 4//4 15//15 13//13 3//3
f 5/15/5 7/16/7 8/10/8 6/9/6
f 7//7 14//14 12//12 8//8
f 8//8 12//12 15//15 4//4
g Cube2_default
usemtl default
s 1
f 9//9 11//11 13//13 15//15 12//12
f 10//10 11//11 9//9
f 12//12 14//14 10//10 9//9
f 14//14 13//13 11//11 10//10
