# Exported from Wings 3D 2.1.5
mtllib MAYAK_expanded2.mtl
o Cube2
#12 vertices, 10 faces
v -0.38500000 -1.30000000 -0.38500000
v -0.38500000 -1.30000000 0.38500000
v -0.38500000 1.30000000 -0.38500000
v -0.38500000 1.30000000 0.38500000
v 0.38500000 -1.30000000 -0.38500000
v 0.38500000 -1.30000000 0.38500000
v 0.38500000 1.30000000 -0.38500000
v 0.38500000 1.30000000 0.38500000
v -10.00000000 16.26248379 0.0000000e+0
v 5.00000000 16.26248379 8.66025404
v 5.00000000 16.26248379 -8.66025404
v -2.7099953e-15 1.26248379 0.0000000e+0
vt 1.6973099e-2 0.70725972
vt 1.6973099e-2 0.97596001
vt 1.7514003e-2 0.70689167
vt 1.7514003e-2 0.97559196
vt 3.2709268e-2 0.29614973
vt 8.9889499e-2 0.40054607
vt 0.14231436 0.50740957
vt 0.15170927 0.29882836
vt 0.21365452 0.40612069
vt 0.27070927 0.29614973
vt 0.28567340 0.70725972
vt 0.28567340 0.97596001
vt 0.28621430 0.70689167
vt 0.28621430 0.97559196
vt 0.40725752 2.2774729e-2
vt 0.40725752 0.94086019
vt 0.40776293 2.2548885e-2
vt 0.40776293 0.94063434
vt 0.40865308 2.1895120e-2
vt 0.40865308 0.93999601
vt 0.40910649 2.2184009e-2
vt 0.40910649 0.94028490
vt 0.70438893 2.2184009e-2
vt 0.70438893 0.94028490
vt 0.70556690 2.1895120e-2
vt 0.70556690 0.93999601
vt 0.70566108 2.2774729e-2
vt 0.70566108 0.94086019
vt 0.70616649 2.2548885e-2
vt 0.70616649 0.94063434
vn -0.57735027 -0.57735027 -0.57735027
vn -0.57735027 -0.57735027 0.57735027
vn -0.57735027 0.57735027 -0.57735027
vn -0.57735027 0.57735027 0.57735027
vn 0.57735027 -0.57735027 -0.57735027
vn 0.57735027 -0.57735027 0.57735027
vn 0.57735027 0.57735027 -0.57735027
vn 0.57735027 0.57735027 0.57735027
vn -0.93246475 0.36126098 0.0000000e+0
vn 0.46623237 0.36126098 0.80753816
vn 0.46623237 0.36126098 -0.80753816
vn -1.6801351e-10 -1.00000000 0.0000000e+0
g Cube2_Cube2_auv
usemtl Cube2_auv
s 1
f 1/14/1 5/4/5 6/3/6 2/13/2
f 2/29/2 4/30/4 3/18/3 1/17/1
f 2/15/2 6/27/6 8/28/8 4/16/4
f 3/24/3 7/22/7 5/21/5 1/23/1
f 4/1/4 8/11/8 7/12/7 3/2/3
f 5/25/5 7/26/7 8/20/8 6/19/6
g Cube2_cone3_auv
usemtl cone3_auv
s 1
f 9/6/9 12/9/12 10/7/10
f 10/5/10 11/8/11 9/6/9
f 10/10/10 12/9/12 11/8/11
f 11/8/11 12/9/12 9/6/9
